<?xml version="1.0" encoding="UTF-8" standalone="no"?>
<!-- Created with Inkscape (http://www.inkscape.org/) -->

<svg
   xmlns:dc="http://purl.org/dc/elements/1.1/"
   xmlns:cc="http://creativecommons.org/ns#"
   xmlns:rdf="http://www.w3.org/1999/02/22-rdf-syntax-ns#"
   xmlns:svg="http://www.w3.org/2000/svg"
   xmlns="http://www.w3.org/2000/svg"
   xmlns:sodipodi="http://sodipodi.sourceforge.net/DTD/sodipodi-0.dtd"
   xmlns:inkscape="http://www.inkscape.org/namespaces/inkscape"
   width="191.60156"
   height="127.33594"
   id="svg2"
   version="1.1"
   inkscape:version="0.48.4 r"
   sodipodi:docname="poi text">
  <defs
     id="defs4" />
  <sodipodi:namedview
     id="base"
     pagecolor="#ffffff"
     borderopacity="1.0"
     inkscape:pageopacity="0.0"
     inkscape:pageshadow="2"
     inkscape:zoom="3.959798"
     inkscape:cx="69.608313"
     inkscape:cy="66.817096"
     inkscape:document-units="px"
     inkscape:current-layer="layer1"
     showgrid="false"
     fit-margin-top="0"
     fit-margin-left="0"
     fit-margin-right="0"
     fit-margin-bottom="0"
     inkscape:window-width="1920"
     inkscape:window-height="1017"
     inkscape:window-x="-4"
     inkscape:window-y="-4"
     inkscape:window-maximized="1" />
  <metadata
     id="metadata7">
    <rdf:RDF>
      <cc:Work
         rdf:about="">
        <dc:format>image/svg+xml</dc:format>
        <dc:type
           rdf:resource="http://purl.org/dc/dcmitype/StillImage" />
        <dc:title></dc:title>
      </cc:Work>
    </rdf:RDF>
  </metadata>
  <g
     inkscape:label="Layer 1"
     inkscape:groupmode="layer"
     id="layer1"
     transform="translate(-262.69592,-90.321579)">
    <g
       style="fill:#ffffff;"
       id="text2985">
      <path
         d="m 288.9928,217.65752 -26.29688,0 0,-58.5 c 0,-10.73434 2.81249,-19.47651 8.4375,-26.22657 3.23436,-3.89056 7.34764,-6.98431 12.33985,-9.28125 4.99215,-2.2968 10.11324,-3.44524 15.36328,-3.44531 10.45307,7e-5 19.26556,3.51569 26.4375,10.54688 7.1718,7.0313 10.75773,15.65629 10.75781,25.875 -8e-5,9.93752 -3.56258,18.51564 -10.6875,25.73437 -7.12506,7.21875 -15.56255,10.82813 -25.3125,10.82813 -1.59379,0 -3.93754,-0.16407 -7.03125,-0.49219 l 0,-28.96875 c 2.15621,1.7344 4.31246,2.60159 6.46875,2.60156 2.7187,3e-5 5.05073,-1.00778 6.99609,-3.02344 1.94526,-2.01559 2.91792,-4.40621 2.91797,-7.17187 -5e-5,-2.76559 -1.00786,-5.12105 -3.02343,-7.06641 -2.01568,-1.94527 -4.42974,-2.91792 -7.24219,-2.91797 -6.75004,5e-5 -10.12503,4.66411 -10.125,13.99219 z"
         style="fill:#ffffff;"
         id="path2992" />
      <path
         d="m 380.75061,120.13408 c 9.93745,7e-5 18.45697,3.57429 25.55859,10.72266 7.10149,7.14849 10.65227,15.71488 10.65235,25.69921 -8e-5,10.12503 -3.59773,18.75002 -10.79297,25.875 -7.19537,7.12501 -15.87896,10.6875 -26.05078,10.6875 -10.17191,0 -18.86721,-3.57421 -26.08594,-10.72265 -7.21876,-7.14842 -10.82813,-15.7617 -10.82812,-25.83985 -10e-6,-10.26558 3.60936,-18.90229 10.82812,-25.91015 7.21873,-7.00775 16.12497,-10.51165 26.71875,-10.51172 z m -0.70312,25.94531 c -2.81254,5e-5 -5.20316,1.01958 -7.17188,3.0586 -1.96878,2.0391 -2.95315,4.53519 -2.95312,7.48828 -3e-5,2.90628 0.99606,5.39065 2.98828,7.45312 1.99215,2.06253 4.37105,3.09378 7.13672,3.09375 2.81245,3e-5 5.21479,-1.03122 7.20703,-3.09375 1.99213,-2.06247 2.98823,-4.54684 2.98828,-7.45312 -5e-5,-2.95309 -0.98443,-5.44918 -2.95313,-7.48828 -1.96879,-2.03902 -4.38285,-3.05855 -7.24218,-3.0586 z"
         style="fill:#ffffff;"
         id="path2994" />
      <path
         d="m 454.22717,121.61064 0,70.10156 -26.29687,0 0,-70.10156 z M 441.14905,90.321579 c 3.56247,1.01e-4 6.6445,1.254006 9.24609,3.761719 2.60153,2.507907 3.90231,5.472748 3.90235,8.894532 -4e-5,3.65633 -1.23051,6.65633 -3.69141,9 -2.46097,2.34383 -5.61331,3.5157 -9.45703,3.51562 -3.84377,8e-5 -6.99611,-1.17179 -9.45703,-3.51562 -2.46095,-2.34367 -3.69142,-5.34367 -3.69141,-9 -10e-6,-3.421784 1.30077,-6.386625 3.90234,-8.894532 2.60155,-2.507713 5.68358,-3.761618 9.2461,-3.761719 z"
         style="fill:#ffffff;"
         id="path2996" />
    </g>
  </g>
</svg>
