<?xml version="1.0" encoding="UTF-8" standalone="no"?>
<!-- Created with Inkscape (http://www.inkscape.org/) -->

<svg
   xmlns:dc="http://purl.org/dc/elements/1.1/"
   xmlns:cc="http://creativecommons.org/ns#"
   xmlns:rdf="http://www.w3.org/1999/02/22-rdf-syntax-ns#"
   xmlns:svg="http://www.w3.org/2000/svg"
   xmlns="http://www.w3.org/2000/svg"
   xmlns:sodipodi="http://sodipodi.sourceforge.net/DTD/sodipodi-0.dtd"
   xmlns:inkscape="http://www.inkscape.org/namespaces/inkscape"
   width="282.26111"
   height="186.73499"
   id="svg3067"
   version="1.1"
   inkscape:version="0.48.4 r9939"
   sodipodi:docname="poi.svg">
  <defs
     id="defs3069" />
  <sodipodi:namedview
     id="base"
     pagecolor="#ffffff"
     bordercolor="#666666"
     borderopacity="1.0"
     inkscape:pageopacity="0"
     inkscape:pageshadow="2"
     inkscape:zoom="0.98994949"
     inkscape:cx="411.22206"
     inkscape:cy="80.540943"
     inkscape:document-units="px"
     inkscape:current-layer="layer1"
     showgrid="false"
     fit-margin-top="0"
     fit-margin-left="0"
     fit-margin-right="0"
     fit-margin-bottom="0"
     inkscape:window-width="1400"
     inkscape:window-height="989"
     inkscape:window-x="0"
     inkscape:window-y="0"
     inkscape:window-maximized="1" />
  <metadata
     id="metadata3072">
    <rdf:RDF>
      <cc:Work
         rdf:about="">
        <dc:format>image/svg+xml</dc:format>
        <dc:type
           rdf:resource="http://purl.org/dc/dcmitype/StillImage" />
        <dc:title></dc:title>
      </cc:Work>
    </rdf:RDF>
  </metadata>
  <g
     inkscape:label="Layer 1"
     inkscape:groupmode="layer"
     id="layer1"
     transform="translate(516.6904,-40.454384)">
    <g
       id="g3160"
       transform="translate(14.142136,-307.08637)"
       style="fill:#ffffff;">
      <path
         sodipodi:nodetypes="csssscccssssssssccccccsssssssccssssssccccscscc"
         style="fill:#ffffff;fill-opacity:1"
         d="m -493.64556,488.02574 c 0.31296,-46.23823 0.31364,-46.25122 2.66545,-51.02728 2.80369,-5.69373 6.57294,-7.95349 13.26633,-7.95349 11.95492,0 19.25356,12.43226 13.117,22.34306 -3.80519,6.14555 -9.23538,8.10264 -18.00718,6.48996 l -4.27145,-0.78529 0.27145,19.84152 0.27144,19.84152 8,0.32419 c 14.95655,0.60609 26.41579,-3.7361 37.2075,-14.09883 11.20493,-10.75953 15.99745,-20.85657 16.95691,-35.72536 1.37094,-21.24558 -9.83481,-40.94355 -28.64534,-50.35407 -9.18487,-4.595 -16.24304,-5.96339 -27.95235,-5.41922 -11.5441,0.5365 -18.88115,2.95131 -28.13513,9.26002 -7.47031,5.09272 -11.95107,10.23164 -16.01859,18.37145 -5.62625,11.25912 -5.88207,14.16037 -5.89822,66.89182 l -0.0148,48.25 18.43696,0 18.43695,0 0.31305,-46.25 z m 150.27149,7.71881 c 12.2451,-3.18945 23.51843,-11.44033 30.97459,-22.67011 10.34799,-15.5852 11.27972,-37.30051 2.32157,-54.10771 -6.34708,-11.90834 -20.10868,-22.83556 -33.123,-26.30086 -6.91046,-1.84004 -21.44927,-1.74735 -28.98727,0.18481 -12.35124,3.16589 -25.90173,13.18264 -32.06863,23.70565 -6.65291,11.35233 -9.07877,26.74179 -6.16435,39.10613 4.44283,18.84865 19.87669,35.23961 37.69327,40.03076 7.19543,1.93496 22.02252,1.96089 29.35382,0.0513 z m -18.343,-36.51197 c -4.45847,-1.0002 -10.04023,-6.68946 -11.07817,-11.29154 -1.29019,-5.72055 0.32568,-10.66764 4.87179,-14.9153 3.96464,-3.70436 6.06737,-4.33999 12.59093,-3.80606 7.21601,0.5906 12.88462,7.19225 12.88462,15.00541 0,10.26511 -9.0365,17.30304 -19.26917,15.00749 z m 112.88455,-14.97891 0,-51.02206 -18.75,0.27207 -18.75,0.27206 -0.26026,49.5 c -0.14314,27.225 -0.0448,50.0625 0.21861,50.75 0.35928,0.9378 5.10722,1.25 19.01027,1.25 l 18.53138,0 z"
         id="path3153"
         inkscape:connector-curvature="0" />
      <path
         transform="matrix(0.99047619,0,0,0.99047619,-67.102041,14.62964)"
         d="m -183.21428,354.86218 c 0,10.35534 -8.39466,18.75 -18.75,18.75 -10.35534,0 -18.75,-8.39466 -18.75,-18.75 0,-10.35534 8.39466,-18.75 18.75,-18.75 10.35534,0 18.75,8.39466 18.75,18.75 z"
         sodipodi:ry="18.75"
         sodipodi:rx="18.75"
         sodipodi:cy="354.86218"
         sodipodi:cx="-201.96428"
         id="path3158"
         style="fill:#ffffff;"
         sodipodi:type="arc" />
    </g>
  </g>
</svg>
